<?xml version="1.0" encoding="UTF-8"?>
<svg width="209px" height="48px" viewBox="0 0 209 48" version="1.1" xmlns="http://www.w3.org/2000/svg" xmlns:xlink="http://www.w3.org/1999/xlink">
    <!-- Generator: Sketch 40.3 (33839) - http://www.bohemiancoding.com/sketch -->
    <title>logo-black</title>
    <desc>Created with Sketch.</desc>
    <defs></defs>
    <g id="Page-1" stroke="none" stroke-width="1" fill="none" fill-rule="evenodd">
        <g id="logo-black" fill="#000000">
            <path d="M28.0637239,46.0328571 C25.1624627,44.7065714 22.5606258,42.7394286 20.2573606,40.1294286 C18.3095373,37.9622858 16.8326041,35.4942858 15.8276979,32.7268571 C15.0073373,30.4685714 14.5270639,28.0774286 14.3763565,25.5594286 L22.7895305,25.5594286 C23.0778653,29.2994286 24.4638054,32.4857142 26.9527537,35.1174286 C29.6288068,37.9482858 32.8769796,39.4291429 36.6924381,39.5682858 L36.6924381,48 C33.5932666,47.8962858 30.7156068,47.2448571 28.0637239,46.0328571 L28.0637239,46.0328571 L28.0637239,46.0328571 L28.0637239,46.0328571 Z M27.1990041,13.1911429 C26.9007171,13.4948571 26.6200598,13.8111429 26.3502083,14.1345714 L16.4128979,14.1345714 C17.61543,11.4977143 19.3013633,9.08 21.4820721,6.88828571 C23.7020218,4.69971429 26.1679373,3.04257142 28.8803878,1.916 C31.318721,0.904285714 33.9234014,0.350285714 36.6924381,0.248571429 L36.6924381,8.95542858 C34.9820503,9.02228571 33.3504286,9.37828571 31.7987101,10.0285714 C30.0684177,10.7531429 28.5346137,11.8074286 27.1990041,13.1911429 L27.1990041,13.1911429 L27.1990041,13.1911429 L27.1990041,13.1911429 Z M23.8973728,18.216 C23.1950192,19.9308571 22.8131319,21.6868571 22.7451714,23.4822858 L14.3265946,23.4822858 C14.3632761,20.9562858 14.7826979,18.5325714 15.5823007,16.212 L24.8869239,16.212 C24.5138518,16.8497142 24.1831482,17.5171429 23.8973728,18.216 L23.8973728,18.216 L23.8973728,18.216 L23.8973728,18.216 Z" id="Fill-1"></path>
            <path d="M9.74025305,35.1174286 C12.228917,32.4862858 13.6134354,29.2985714 13.9012013,25.5591429 L22.3146598,25.5591429 C22.1642367,28.0774286 21.6856695,30.4691429 20.8650246,32.7265714 C19.859834,35.4945714 18.3837537,37.962 16.4359305,40.1294286 C14.1320967,42.7391429 11.5302599,44.7068571 8.629283,46.0325714 C5.9768313,47.2451429 3.09860272,47.8962858 0,48 L0,39.5677142 C3.81545851,39.4294286 7.06391565,37.9482858 9.74025305,35.1174286" id="Fill-3"></path>
            <path d="M47.6781258,37.9383431 L47.6781258,33.9217419 C48.2596451,33.9618312 48.9378474,33.9618312 49.5196512,33.9618312 C51.2152991,33.9618312 52.5717037,33.4395338 52.5717037,31.2707341 L52.5717037,9.82156692 L57.901208,9.82156692 L57.901208,30.9491672 C57.901208,36.5724656 54.2673517,38.0185216 50.2459106,38.0185216 C49.2770908,38.0185216 48.5502627,38.0185216 47.6781258,37.9383431 L47.6781258,37.9383431 Z M61.2907976,31.2306449 L61.2907976,9.82156692 L66.6205863,9.82156692 L66.6205863,31.5115538 C66.6205863,33.5199966 67.6863732,34.2427403 69.3820212,34.2427403 C71.0776692,34.2427403 72.1434562,33.5199966 72.1434562,31.5115538 L72.1434562,9.82156692 L77.182343,9.82156692 L77.182343,31.2306449 C77.182343,35.7291699 74.4692494,38.2999992 69.2364281,38.2999992 C64.0041756,38.2999992 61.2907976,35.7291699 61.2907976,31.2306449 L61.2907976,31.2306449 Z M88.1291254,13.5171697 C86.433193,13.5171697 85.4643731,14.2800026 85.4643731,16.2884453 C85.4643731,22.0726693 95.88139,23.1570691 95.88139,31.1902713 C95.88139,35.6890806 93.168012,38.2593413 87.9351907,38.2593413 C82.7029381,38.2593413 79.9898445,35.6890806 79.9898445,31.1902713 L79.9898445,29.4633063 L85.0281626,29.4633063 L85.0281626,31.471749 C85.0281626,33.4799074 86.0945184,34.2029354 87.7901663,34.2029354 C89.4858143,34.2029354 90.5516014,33.4799074 90.5516014,31.471749 C90.5516014,25.6872407 80.1354376,24.6028408 80.1354376,16.569923 C80.1354376,12.0708294 82.7999054,9.5 87.984101,9.5 C93.168012,9.5 95.8327641,12.0708294 95.8327641,16.569923 L95.8327641,17.453308 L90.7941618,17.453308 L90.7941618,16.2884453 C90.7941618,14.2800026 89.8247733,13.5171697 88.1291254,13.5171697 L88.1291254,13.5171697 Z M108.281545,37.9383431 L102.95204,37.9383431 L102.95204,13.838168 L97.3802598,13.838168 L97.3802598,9.82156692 L113.853325,9.82156692 L113.853325,13.838168 L108.281545,13.838168 L108.281545,37.9383431 L108.281545,37.9383431 Z M131.631608,31.1902713 C131.631608,35.6890806 128.918231,38.2593413 123.685978,38.2593413 C118.453157,38.2593413 115.739779,35.6890806 115.739779,31.1902713 L115.739779,16.569923 C115.739779,12.0708294 118.453157,9.5 123.685978,9.5 C128.918231,9.5 131.631608,12.0708294 131.631608,16.569923 L131.631608,19.3011093 L126.592437,19.3011093 L126.592437,16.2884453 C126.592437,14.2800026 125.52665,13.5171697 123.831003,13.5171697 C122.135355,13.5171697 121.069567,14.2800026 121.069567,16.2884453 L121.069567,31.471749 C121.069567,33.4799074 122.135355,34.2029354 123.831003,34.2029354 C125.52665,34.2029354 126.592437,33.4799074 126.592437,31.471749 L126.592437,27.4545792 L131.631608,27.4545792 L131.631608,31.1902713 L131.631608,31.1902713 Z M134.438826,31.1902713 L134.438826,16.569923 C134.438826,12.0708294 137.297229,9.5 142.52948,9.5 C147.762017,9.5 150.62042,12.0708294 150.62042,16.569923 L150.62042,31.1902713 C150.62042,35.6890806 147.762017,38.2593413 142.52948,38.2593413 C137.297229,38.2593413 134.438826,35.6890806 134.438826,31.1902713 L134.438826,31.1902713 Z M142.52948,13.5171697 C140.833548,13.5171697 139.76776,14.2800026 139.76776,16.2884453 L139.76776,31.471749 C139.76776,33.4799074 140.833548,34.2427403 142.52948,34.2427403 C144.225128,34.2427403 145.2912,33.4799074 145.2912,31.471749 L145.2912,16.2884453 C145.2912,14.2800026 144.225128,13.5171697 142.52948,13.5171697 L142.52948,13.5171697 Z M154.058351,37.9383431 L154.058351,9.82156692 L162.48825,9.82156692 C167.817469,9.82156692 170.43388,12.2718443 170.43388,16.7703692 L170.43388,30.989825 C170.43388,35.4880658 167.817469,37.9383431 162.48825,37.9383431 L154.058351,37.9383431 L154.058351,37.9383431 Z M162.391282,13.838168 L159.387288,13.838168 L159.387288,33.9217419 L162.391282,33.9217419 C164.08693,33.9217419 165.10466,33.1984297 165.10466,31.1902713 L165.10466,16.569923 C165.10466,14.5614803 164.08693,13.838168 162.391282,13.838168 L162.391282,13.838168 Z M188.357189,37.9383431 L173.822333,37.9383431 L173.822333,9.82156692 L188.357189,9.82156692 L188.357189,13.838168 L179.152121,13.838168 L179.152121,21.6706396 L186.467607,21.6706396 L186.467607,25.6872407 L179.152121,25.6872407 L179.152121,33.9217419 L188.357189,33.9217419 L188.357189,37.9383431 L188.357189,37.9383431 Z M191.649242,37.9383431 L191.649242,9.82156692 L200.079708,9.82156692 C205.408929,9.82156692 208.02534,12.2718443 208.02534,16.7703692 L208.02534,30.989825 C208.02534,35.4880658 205.408929,37.9383431 200.079708,37.9383431 L191.649242,37.9383431 L191.649242,37.9383431 Z M199.982742,13.838168 L196.978746,13.838168 L196.978746,33.9217419 L199.982742,33.9217419 C201.678389,33.9217419 202.69555,33.1984297 202.69555,31.1902713 L202.69555,16.569923 C202.69555,14.5614803 201.678389,13.838168 199.982742,13.838168 L199.982742,13.838168 Z" id="Fill-5"></path>
        </g>
    </g>
</svg>